<mxfile host="app.diagrams.net" modified="2023-05-15T09:44:01.203Z" agent="Mozilla/5.0 (Macintosh; Intel Mac OS X 10_15_7) AppleWebKit/537.36 (KHTML, like Gecko) Chrome/98.0.4758.102 Safari/537.36 NetType/WIFI MicroMessenger/6.8.0(0x16080000) MacWechat/3.7.1(0x13070110) XWEB/30419 Flue" version="21.2.9" etag="alzgMH-DkCH3IN7e8Z9X" type="github">
  <diagram name="第 1 页" id="kZsR6Xk8gTe69wgRAa6V">
    <mxGraphModel>
      <root>
        <mxCell id="0" />
        <mxCell id="1" parent="0" />
      </root>
    </mxGraphModel>
  </diagram>
</mxfile>
